<?xml version="1.0" encoding="UTF-8" ?>
<!DOCTYPE svg PUBLIC "-//W3C//DTD SVG 1.1//EN" "http://www.w3.org/Graphics/SVG/1.1/DTD/svg11.dtd">
<svg width="433pt" height="289pt" fill="#ffffffff" xmlns="http://www.w3.org/2000/svg" version="1.1">
  <path d="M 43.0 260.0 L 43.0 29.0 L 389.0 29.0 L 389.0 260.0 L 43.0 260.0" stroke="black" fill="transparent"/>
  <path d="M 71.83333333333334 263.08 L 71.83333333333334 260.0 M 129.5 263.08 L 129.5 260.0 M 187.1666666666667 263.08 L 187.1666666666667 260.0 M 244.8333333333333 263.08 L 244.8333333333333 260.0 M 302.5 263.08 L 302.5 260.0 M 360.1666666666666 263.08 L 360.1666666666666 260.0 " stroke="black" fill="transparent"/>
  <path d="M 39.54 240.75 L 43.0 240.75 M 39.54 221.5 L 43.0 221.5 M 39.54 202.25 L 43.0 202.25 M 39.54 183.0 L 43.0 183.0 M 39.54 163.75 L 43.0 163.75 M 39.54 144.5 L 43.0 144.5 M 39.54 125.25 L 43.0 125.25 M 39.54 105.9999999999999 L 43.0 105.9999999999999 M 39.54 86.74999999999994 L 43.0 86.74999999999994 M 39.54 67.49999999999994 L 43.0 67.49999999999994 M 39.54 48.24999999999994 L 43.0 48.24999999999994 " stroke="black" fill="transparent"/>
  <path d="M 71.83333333333334 240.75 L 74.71666666666667 240.7490808184527 L 77.60000000000002 240.7480649657382 L 80.48333333333335 240.746942274861 L 83.36666666666669 240.7457015095536 L 86.25000000000003 240.7443302518197 L 89.13333333333337 240.742814777651 L 92.01666666666671 240.7411399196727 L 94.90000000000005 240.7392889153431 L 97.78333333333339 240.7372432391889 L 100.6666666666667 240.7349824173954 L 103.5500000000001 240.7324838228983 L 106.4333333333334 240.729722448924 L 109.3166666666667 240.7266706587137 L 112.2000000000001 240.7232979089252 L 115.0833333333334 240.719570443945 L 117.9666666666668 240.7154509580508 L 120.8500000000001 240.710898222043 L 123.7333333333335 240.7058666706096 L 126.6166666666668 240.7003059462925 L 129.5000000000001 240.6941603954939 L 132.3833333333335 240.6873685114757 L 135.2666666666668 240.6798623187799 L 138.1500000000002 240.6715666929069 L 141.0333333333335 240.6623986084449 L 143.9166666666668 240.6522663081231 L 146.8000000000002 240.6410683844741 L 149.6833333333335 240.6286927649145 L 152.5666666666668 240.615015590084 L 155.4500000000002 240.59989997422 L 158.3333333333335 240.5831946351582 L 161.2166666666669 240.5647323802505 L 164.1000000000002 240.5443284330445 L 166.9833333333336 240.5217785839784 L 169.8666666666669 240.4968571465835 L 172.7500000000003 240.4693146987381 L 175.6333333333336 240.4388755863668 L 178.5166666666669 240.4052351646019 L 181.4000000000003 240.3680567487956 L 184.2833333333336 240.3269682448663 L 187.1666666666669 240.2815584252564 L 190.0500000000003 240.2313728132285 L 192.9333333333336 240.1759091343095 L 195.8166666666669 240.1146122893586 L 198.7000000000002 240.0468687989492 L 201.5833333333336 239.9720006634597 L 204.4666666666669 239.8892585774262 L 207.3500000000003 239.7978144302411 L 210.2333333333336 239.6967530181438 L 213.1166666666669 239.5850628845543 L 216.0000000000002 239.4616261970751 L 218.8833333333336 239.3252075598496 L 221.7666666666669 239.1744416493044 L 224.6500000000002 239.0078195495327 L 227.5333333333336 238.8236736505563 L 230.4166666666669 238.6201609583247 L 233.3000000000002 238.395244649411 L 236.1833333333335 238.1466736857988 L 239.0666666666669 237.8719602857364 L 241.9500000000002 237.5683550251818 L 244.8333333333335 237.2328193206421 L 247.7166666666669 236.8619950180088 L 250.6000000000002 236.4521707830228 L 253.4833333333335 235.9992449569936 L 256.3666666666668 235.4986845060208 L 259.2500000000001 234.9454796528668 L 262.1333333333334 234.3340937374227 L 265.0166666666668 233.6584078039529 L 267.9000000000002 232.9116593605292 L 270.7833333333335 232.0863746977391 L 273.6666666666668 231.1742940892896 L 276.5500000000001 230.1662891258905 L 279.4333333333335 229.0522713550658 L 282.3166666666668 227.821091312531 L 285.2000000000001 226.4604269346064 L 288.0833333333335 224.9566602348626 L 290.9666666666668 223.2947410107351 L 293.8500000000001 221.4580362160386 L 296.7333333333335 219.42816349185 L 299.6166666666667 217.1848071896817 L 302.5000000000001 214.7055150456435 L 305.3833333333334 211.9654734706392 L 308.2666666666668 208.9372592076261 L 311.1500000000001 205.5905648704423 L 314.0333333333334 201.8918956172982 L 316.9166666666667 197.8042339231428 L 319.8000000000001 193.2866690958305 L 322.6833333333334 188.2939878281634 L 325.5666666666667 182.7762216879167 L 328.4500000000001 176.6781470169735 L 331.3333333333334 169.9387322343934 L 334.2166666666667 162.4905270118368 L 337.1 154.258987208008 L 339.9833333333334 145.1617288058344 L 342.8666666666667 135.1077033855327 L 345.7500000000001 123.996286881422 L 348.6333333333334 111.7162725024532 L 351.5166666666667 98.14475773726596 L 354.4 83.14591430454681 L 357.2833333333333 66.56962873793569 L 360.1666666666666 48.25" stroke="#ff0000ff" fill="transparent" stroke-width="1.5pt"/>
  <text x="69.16733333333335" y="278.662" fill="#000000ff" font-size="9pt">
    0
  </text>
  <text x="126.834" y="278.662" fill="#000000ff" font-size="9pt">
    2
  </text>
  <text x="184.5006666666667" y="278.662" fill="#000000ff" font-size="9pt">
    4
  </text>
  <text x="242.1673333333334" y="278.662" fill="#000000ff" font-size="9pt">
    6
  </text>
  <text x="299.834" y="278.662" fill="#000000ff" font-size="9pt">
    8
  </text>
  <text x="357.5006666666666" y="278.662" fill="#000000ff" font-size="9pt">
    10
  </text>
  <text x="3.009999999999998" y="244.749" fill="#000000ff" font-size="9pt">
    +1.0
  </text>
  <text x="3.009999999999998" y="225.499" fill="#000000ff" font-size="9pt">
    +2.2e+03
  </text>
  <text x="3.009999999999998" y="206.249" fill="#000000ff" font-size="9pt">
    +4.4e+03
  </text>
  <text x="3.009999999999998" y="186.999" fill="#000000ff" font-size="9pt">
    +6.6e+03
  </text>
  <text x="3.009999999999998" y="167.749" fill="#000000ff" font-size="9pt">
    +8.8e+03
  </text>
  <text x="3.009999999999998" y="148.499" fill="#000000ff" font-size="9pt">
    +1.1e+04
  </text>
  <text x="3.009999999999998" y="129.249" fill="#000000ff" font-size="9pt">
    +1.3e+04
  </text>
  <text x="3.009999999999998" y="109.9989999999999" fill="#000000ff" font-size="9pt">
    +1.5e+04
  </text>
  <text x="3.009999999999998" y="90.74899999999994" fill="#000000ff" font-size="9pt">
    +1.8e+04
  </text>
  <text x="3.009999999999998" y="71.49899999999994" fill="#000000ff" font-size="9pt">
    +2.0e+04
  </text>
  <text x="3.009999999999998" y="52.24899999999995" fill="#000000ff" font-size="9pt">
    +2.2e+04
  </text>
</svg>
