<?xml version="1.0" encoding="UTF-8" ?>
<!DOCTYPE svg PUBLIC "-//W3C//DTD SVG 1.1//EN" "http://www.w3.org/Graphics/SVG/1.1/DTD/svg11.dtd">
<svg width="433pt" height="289pt" fill="#ffffffff" xmlns="http://www.w3.org/2000/svg" version="1.1">
  <path d="M 43.0 260.0 L 43.0 29.0 L 389.0 29.0 L 389.0 260.0 L 43.0 260.0" stroke="black" fill="transparent"/>
  <path d="M 71.83333333333334 263.08 L 71.83333333333334 260.0 M 129.5 263.08 L 129.5 260.0 M 187.1666666666667 263.08 L 187.1666666666667 260.0 M 244.8333333333334 263.08 L 244.8333333333334 260.0 M 302.5000000000001 263.08 L 302.5000000000001 260.0 M 360.1666666666667 263.08 L 360.1666666666667 260.0 " stroke="black" fill="transparent"/>
  <path d="M 39.54 240.75 L 43.0 240.75 M 39.54 221.5 L 43.0 221.5 M 39.54 202.25 L 43.0 202.25 M 39.54 183.0 L 43.0 183.0 M 39.54 163.75 L 43.0 163.75 M 39.54 144.4999999999999 L 43.0 144.4999999999999 M 39.54 125.25 L 43.0 125.25 M 39.54 106.0 L 43.0 106.0 M 39.54 86.74999999999994 L 43.0 86.74999999999994 M 39.54 67.49999999999994 L 43.0 67.49999999999994 M 39.54 48.24999999999994 L 43.0 48.24999999999994 " stroke="black" fill="transparent"/>
  <path d="M 71.83333333333334 144.4831686418404 L 76.48387096774195 134.8717843565489 L 81.13440860215056 125.3564338459348 L 85.78494623655917 116.0321913469434 L 90.43548387096777 106.9922216084399 L 95.08602150537638 98.32684901983481 L 99.73655913978497 90.12265511964199 L 104.3870967741936 82.46161350136623 L 109.0376344086022 75.42027076045375 L 113.6881720430108 69.06898166601323 L 118.3387096774194 63.47120619921935 L 122.989247311828 58.68287548215764 L 127.6397849462366 54.75183293254139 L 132.2903225806452 51.71735622809638 L 136.9408602150538 49.60976485698888 L 141.5913978494625 48.45011717552183 L 146.2419354838711 48.24999999999997 L 150.8924731182797 49.01141283509114 L 155.5430107526883 50.72674789543666 L 160.1935483870969 53.37886612012804 L 164.8440860215055 56.94126842053782 L 169.4946236559141 61.37836045045398 L 174.1451612903227 66.64580825302127 L 178.7956989247313 72.69098123098303 L 183.44623655914 79.45347801421218 L 188.0967741935486 86.86572997023475 L 192.7473118279572 94.853676327671 L 197.3978494623658 103.3375041669814 L 202.0483870967744 112.2324458847763 L 206.698924731183 121.4496261636881 L 211.3494623655916 130.8969499851648 L 216.0000000000002 140.4800228124522 L 220.6505376344088 150.1030937496028 L 225.3010752688174 159.6700122527768 L 229.9516129032261 169.0851888346934 L 234.6021505376347 178.2545501631897 L 239.2526881720433 187.0864790108592 L 243.9032258064518 195.4927296641035 L 248.5537634408605 203.3893096451325 L 253.2043010752691 210.697318937038 L 257.8548387096777 217.3437383266818 L 262.5053763440863 223.262158988537 L 267.1559139784948 228.39344601972 L 271.8064516129035 232.6863292963931 L 276.456989247312 236.0979157478946 L 281.1075268817207 238.5941179301213 L 285.7580645161293 240.1499946160035 L 290.4086021505378 240.75 L 295.0591397849464 240.3881390266495 L 299.709677419355 239.0680272911823 L 304.3602150537636 236.8028549136882 L 309.0107526881722 233.6152547477969 L 313.6612903225808 229.5370762406853 L 318.3118279569894 224.6090672039299 L 322.9623655913979 218.8804666748428 L 327.6129032258065 212.408512936287 L 332.2634408602152 205.2578716106747 L 336.9139784946237 197.4999895424437 L 341.5645161290323 189.2123809248048 L 346.2150537634409 180.4778528035463 L 350.8655913978495 171.3836776964048 L 355.5161290322581 162.0207215949161 L 360.1666666666667 152.4825360614645" stroke="#1f77b4ff" fill="transparent" stroke-width="1.5pt"/>
  <path d="M 71.83333333333334 48.20894896554853 L 76.48387096774195 48.68991905503836 L 81.13440860215056 50.12802362936108 L 85.78494623655917 52.50889362298437 L 90.43548387096777 55.80874016994289 L 95.08602150537638 59.99459229432364 L 99.73655913978497 65.02462634535863 L 104.3870967741936 70.84858388551797 L 109.0376344086022 77.40827385620497 L 113.6881720430108 84.63815400357763 L 118.3387096774194 92.46598575508406 L 122.989247311828 100.8135560034004 L 127.6397849462366 109.5974585859453 L 132.2903225806452 118.7299276516861 L 136.9408602150538 128.1197145885109 L 141.5913978494625 137.6729997491979 L 146.2419354838711 147.2943298663175 L 150.8924731182797 156.8875717897285 L 155.5430107526883 166.3568730172364 L 160.1935483870969 175.6076194211106 L 164.8440860215055 184.5473806011739 L 169.4946236559141 193.0868334188073 L 174.1451612903227 201.1406544842248 L 178.7956989247313 208.6283726795799 L 183.44623655914 215.4751731997754 L 188.0967741935486 221.6126450772646 L 192.7473118279572 226.9794647218263 L 197.3978494623658 231.5220086456067 L 202.0483870967744 235.1948892512847 L 206.698924731183 237.9614083299414 L 211.3494623655916 239.7939237374323 L 216.0000000000002 240.674125585555 L 220.6505376344088 240.593219188399 L 225.3010752688174 239.5520129359406 L 229.9516129032261 237.5609102168773 L 234.6021505376347 234.639805471407 L 239.2526881720433 230.8178854125576 L 243.9032258064518 226.1333374021982 L 248.5537634408605 220.6329678955428 L 253.2043010752691 214.3717347665213 L 257.8548387096777 207.4121981868705 L 262.5053763440863 199.8238955455772 L 267.1559139784948 191.6826466542741 L 271.8064516129035 183.0697961807438 L 276.456989247312 174.071400879888 L 281.1075268817207 164.7773697430789 L 285.7580645161293 155.2805656572371 L 290.4086021505378 145.6758775495624 L 295.0591397849464 136.059272288739 L 299.709677419355 126.5268358157058 L 304.3602150537636 117.1738130846969 L 309.0107526881722 108.0936564071422 L 313.6612903225808 99.37709170706307 L 318.3118279569894 91.11121201762961 L 322.9623655913979 83.378607276362 L 327.6129032258065 76.25653911377569 L 332.2634408602152 69.81616888070857 L 336.9139784946237 64.12184662762604 L 341.5645161290323 59.23046814018821 L 346.2150537634409 55.19090645536681 L 350.8655913978495 52.04352353821508 L 355.5161290322581 49.81976699845461 L 360.1666666666667 48.54185587635467" stroke="#ff00ffff" fill="transparent" stroke-width="1.5pt"/>
  <path d="M 71.83333333333334 144.4831686418404 L 76.48387096774195 134.8396929461697 L 81.13440860215056 125.0997021044527 L 85.78494623655917 115.1657150146213 L 90.43548387096777 104.9383089949523 L 95.08602150537638 94.31512472845094 L 99.73655913978497 83.18984181640249 L 104.3870967741936 71.45111468808648 L 109.0376344086022 58.98145821688027 L 113.6881720430108 45.65607188962375 L 118.3387096774194 31.34159076113667 L 122.989247311828 15.89475069302199 L 127.6397849462366 -0.8390454819843285 L 132.2903225806452 -19.02727522042488 L 136.9408602150538 -38.85197243879702 L 141.5913978494625 -60.5115493701731 L 146.2419354838711 -84.2227823405176 L 150.8924731182797 -110.2229813390183 L 155.5430107526883 -138.7723650962207 L 160.1935483870969 -170.1566654405465 L 164.8440860215055 -204.6899869984691 L 169.4946236559141 -242.7179508591905 L 174.1451612903227 -284.6211536666688 L 178.7956989247313 -330.8189767587542 L 183.44623655914 -381.7737834765765 L 188.0967741935486 -437.9955466522699 L 192.7473118279572 -500.046952588484 L 197.3978494623658 -568.5490326120263 L 202.0483870967744 -644.1873785641163 L 206.698924731183 -727.7190044339689 L 211.3494623655916 -819.9799228092381 L 216.0000000000002 -921.8935119709897 L 220.6505376344088 -1034.479757373895 L 225.3010752688174 -1158.865460003488 L 229.9516129032261 -1296.295513779167 L 234.6021505376347 -1448.145364870954 L 239.2526881720433 -1615.934777627073 L 243.9032258064518 -1801.343044886357 L 248.5537634408605 -2006.225794905407 L 253.2043010752691 -2232.633563109884 L 257.8548387096777 -2482.832314542256 L 262.5053763440863 -2759.326122401565 L 267.1559139784948 -3064.882229649643 L 271.8064516129035 -3402.558744508784 L 276.456989247312 -3775.735247036695 L 281.1075268817207 -4188.146613099629 L 285.7580645161293 -4643.92039426539 L 290.4086021505378 -5147.618127726744 L 295.0591397849464 -5704.280989698826 L 299.709677419355 -6319.480249205102 L 304.3602150537636 -6999.373027210324 L 309.0107526881722 -7750.763919156622 L 313.6612903225808 -8581.173097641791 L 318.3118279569894 -9498.911576834282 L 322.9623655913979 -10513.1643918964 L 327.6129032258065 -11634.08252590344 L 332.2634408602152 -12872.88450429413 L 336.9139784946237 -14241.96867364394 L 341.5645161290323 -15755.03728848478 L 346.2150537634409 -17427.23364807393 L 350.8655913978495 -19275.29365562274 L 355.5161290322581 -21317.7133168412 L 360.1666666666667 -23574.93385417972" stroke="#2ca02cff" fill="transparent" stroke-width="1.5pt"/>
  <text x="69.16733333333335" y="278.662" fill="#000000ff" font-size="9pt">
    0
  </text>
  <text x="126.834" y="278.662" fill="#000000ff" font-size="9pt">
    1.24
  </text>
  <text x="184.5006666666667" y="278.662" fill="#000000ff" font-size="9pt">
    2.48
  </text>
  <text x="242.1673333333334" y="278.662" fill="#000000ff" font-size="9pt">
    3.72
  </text>
  <text x="299.8340000000001" y="278.662" fill="#000000ff" font-size="9pt">
    4.96
  </text>
  <text x="357.5006666666667" y="278.662" fill="#000000ff" font-size="9pt">
    6.2
  </text>
  <text x="3.009999999999998" y="244.749" fill="#000000ff" font-size="9pt">
    -1.0
  </text>
  <text x="3.009999999999998" y="225.499" fill="#000000ff" font-size="9pt">
    -0.80
  </text>
  <text x="3.009999999999998" y="206.249" fill="#000000ff" font-size="9pt">
    -0.60
  </text>
  <text x="3.009999999999998" y="186.999" fill="#000000ff" font-size="9pt">
    -0.40
  </text>
  <text x="3.009999999999998" y="167.749" fill="#000000ff" font-size="9pt">
    -0.20
  </text>
  <text x="3.009999999999998" y="148.4989999999999" fill="#000000ff" font-size="9pt">
    -0.00017
  </text>
  <text x="3.009999999999998" y="129.249" fill="#000000ff" font-size="9pt">
    +0.20
  </text>
  <text x="3.009999999999998" y="109.999" fill="#000000ff" font-size="9pt">
    +0.40
  </text>
  <text x="3.009999999999998" y="90.74899999999994" fill="#000000ff" font-size="9pt">
    +0.60
  </text>
  <text x="3.009999999999998" y="71.49899999999994" fill="#000000ff" font-size="9pt">
    +0.80
  </text>
  <text x="3.009999999999998" y="52.24899999999995" fill="#000000ff" font-size="9pt">
    +1.0
  </text>
</svg>
