<?xml version="1.0" encoding="UTF-8" ?>
<!DOCTYPE svg PUBLIC "-//W3C//DTD SVG 1.1//EN" "http://www.w3.org/Graphics/SVG/1.1/DTD/svg11.dtd">
<svg width="433pt" height="289pt" fill="#ffffffff" xmlns="http://www.w3.org/2000/svg" version="1.1">
  <path d="M 43.0 260.0 L 43.0 29.0 L 389.0 29.0 L 389.0 260.0 L 43.0 260.0" stroke="black" fill="transparent"/>
  <path d="M 71.83333333333334 263.08 L 71.83333333333334 260.0 M 129.5 263.08 L 129.5 260.0 M 187.1666666666667 263.08 L 187.1666666666667 260.0 M 244.8333333333333 263.08 L 244.8333333333333 260.0 M 302.5 263.08 L 302.5 260.0 M 360.1666666666666 263.08 L 360.1666666666666 260.0 " stroke="black" fill="transparent"/>
  <path d="M 39.54000000000001 240.75 L 43.0 240.75 M 39.54000000000001 221.5 L 43.0 221.5 M 39.54000000000001 202.25 L 43.0 202.25 M 39.54000000000001 183.0 L 43.0 183.0 M 39.54000000000001 163.75 L 43.0 163.75 M 39.54000000000001 144.4999999999999 L 43.0 144.4999999999999 M 39.54000000000001 125.25 L 43.0 125.25 M 39.54000000000001 106.0 L 43.0 106.0 M 39.54000000000001 86.74999999999994 L 43.0 86.74999999999994 M 39.54000000000001 67.49999999999994 L 43.0 67.49999999999994 M 39.54000000000001 48.24999999999994 L 43.0 48.24999999999994 " stroke="black" fill="transparent"/>
  <path d="M 71.8333 260.0000 L 71.8333 29.0000 M 129.5000 260.0000 L 129.5000 29.0000 M 187.1667 260.0000 L 187.1667 29.0000 M 244.8333 260.0000 L 244.8333 29.0000 M 302.5000 260.0000 L 302.5000 29.0000 M 360.1667 260.0000 L 360.1667 29.0000 " stroke="#bfbfbfff" fill="transparent"/>
  <path d="M 43.0 240.75 L 389.0 240.75 M 43.0 221.5 L 389.0 221.5 M 43.0 202.25 L 389.0 202.25 M 43.0 183.0 L 389.0 183.0 M 43.0 163.75 L 389.0 163.75 M 43.0 144.4999999999999 L 389.0 144.4999999999999 M 43.0 125.25 L 389.0 125.25 M 43.0 106.0 L 389.0 106.0 M 43.0 86.74999999999994 L 389.0 86.74999999999994 M 43.0 67.49999999999994 L 389.0 67.49999999999994 M 43.0 48.24999999999994 L 389.0 48.24999999999994 " stroke="#bfbfbfff" fill="transparent"/>
  <path d="M 71.83333333333334 144.4831686418404 L 74.74579124579125 134.8717843565489 L 77.65824915824916 125.3564338459348 L 80.57070707070707 116.0321913469434 L 83.48316498316498 106.9922216084399 L 86.39562289562289 98.32684901983481 L 89.30808080808082 90.12265511964196 L 92.22053872053873 82.46161350136623 L 95.13299663299662 75.42027076045375 L 98.04545454545455 69.06898166601323 L 100.9579124579125 63.47120619921935 L 103.8703703703704 58.68287548215764 L 106.7828282828283 54.75183293254139 L 109.6952861952862 51.71735622809638 L 112.6077441077441 49.60976485698888 L 115.520202020202 48.45011717552183 L 118.4326599326599 48.24999999999997 L 121.3451178451179 49.01141283509114 L 124.2575757575758 50.72674789543666 L 127.1700336700337 53.37886612012801 L 130.0824915824916 56.94126842053782 L 132.9949494949495 61.37836045045395 L 135.9074074074074 66.64580825302122 L 138.8198653198653 72.69098123098303 L 141.7323232323232 79.45347801421212 L 144.6447811447812 86.8657299702347 L 147.5572390572391 94.85367632767094 L 150.469696969697 103.3375041669814 L 153.3821548821549 112.2324458847762 L 156.2946127946128 121.449626163688 L 159.2070707070707 130.8969499851647 L 162.1195286195286 140.480022812452 L 165.0319865319866 150.1030937496026 L 167.9444444444445 159.6700122527766 L 170.8569023569024 169.0851888346933 L 173.7693602693603 178.2545501631896 L 176.6818181818182 187.0864790108591 L 179.5942760942761 195.4927296641034 L 182.506734006734 203.3893096451324 L 185.419191919192 210.6973189370378 L 188.3316498316498 217.3437383266817 L 191.2441077441078 223.262158988537 L 194.1565656565657 228.3934460197199 L 197.0690235690236 232.6863292963931 L 199.9814814814815 236.0979157478946 L 202.8939393939394 238.5941179301213 L 205.8063973063973 240.1499946160035 L 208.7188552188552 240.75 L 211.6313131313131 240.3881390266494 L 214.5437710437711 239.0680272911822 L 217.456228956229 236.8028549136882 L 220.3686868686869 233.6152547477968 L 223.2811447811448 229.5370762406852 L 226.1936026936027 224.6090672039298 L 229.1060606060606 218.8804666748426 L 232.0185185185185 212.4085129362868 L 234.9309764309764 205.2578716106744 L 237.8434343434344 197.4999895424433 L 240.7558922558923 189.2123809248043 L 243.6683501683502 180.4778528035459 L 246.5808080808081 171.3836776964043 L 249.493265993266 162.0207215949155 L 252.4057239057239 152.482536061464 L 255.3181818181818 142.8644234929947 L 258.2306397306397 133.2624848909668 L 261.1430976430976 123.7726596519127 L 264.0555555555555 114.4897669727019 L 266.9680134680135 105.5065584484687 L 269.8804713804714 96.91279132933323 L 272.7929292929293 88.7943316956283 L 275.7053872053872 81.23229651240789 L 278.6178451178451 74.30224313554612 L 281.530303030303 68.07341436761374 L 284.442760942761 62.60804660668268 L 287.3552188552188 57.9607480008099 L 290.2676767676768 54.17795282147253 L 293.1801346801346 51.29745750767668 L 296.0925925925926 49.34804301643271 L 299.0050505050505 48.34918725294631 L 301.9175084175084 48.31087045382844 L 304.8299663299663 49.23347546786999 L 307.7424242424243 51.10778393074341 L 310.6548821548822 53.91506837185168 L 313.5673400673401 57.62727933302395 L 316.479797979798 62.20732562943016 L 319.3922558922559 67.60944495243851 L 322.3047138047138 73.7796611114768 L 325.2171717171718 80.65632334628631 L 328.1296296296296 88.17072232093898 L 331.0420875420875 96.2477766448101 L 333.9545454545454 104.8067830610149 L 336.8670033670034 113.7622228066739 L 339.7794612794613 123.0246160881235 L 342.6919191919192 132.5014161334353 L 345.6043771043771 142.0979338891702 L 348.5168350168351 151.7182841221001 L 351.429292929293 161.2663434727626 L 354.3417508417509 170.6467108882943 L 357.2542087542088 179.7656608382167 L 360.1666666666666 188.5320797889542" stroke="#1f77b4ff" fill="transparent" stroke-width="1.5pt"/>
  <path d="M 71.83333333333334 48.20894896554853 L 74.74579124579125 48.68991905503836 L 77.65824915824916 50.12802362936108 L 80.57070707070707 52.50889362298437 L 83.48316498316498 55.80874016994289 L 86.39562289562289 59.99459229432364 L 89.30808080808082 65.02462634535863 L 92.22053872053873 70.848583885518 L 95.13299663299662 77.408273856205 L 98.04545454545455 84.63815400357763 L 100.9579124579125 92.46598575508406 L 103.8703703703704 100.8135560034004 L 106.7828282828283 109.5974585859453 L 109.6952861952862 118.7299276516861 L 112.6077441077441 128.1197145885109 L 115.520202020202 137.6729997491978 L 118.4326599326599 147.2943298663175 L 121.3451178451179 156.8875717897285 L 124.2575757575758 166.3568730172363 L 127.1700336700337 175.6076194211106 L 130.0824915824916 184.5473806011739 L 132.9949494949495 193.0868334188073 L 135.9074074074074 201.1406544842247 L 138.8198653198653 208.6283726795799 L 141.7323232323232 215.4751731997753 L 144.6447811447812 221.6126450772646 L 147.5572390572391 226.9794647218263 L 150.469696969697 231.5220086456067 L 153.3821548821549 235.1948892512847 L 156.2946127946128 237.9614083299413 L 159.2070707070707 239.7939237374323 L 162.1195286195286 240.674125585555 L 165.0319865319866 240.593219188399 L 167.9444444444445 239.5520129359406 L 170.8569023569024 237.5609102168773 L 173.7693602693603 234.639805471407 L 176.6818181818182 230.8178854125576 L 179.5942760942761 226.1333374021983 L 182.506734006734 220.6329678955428 L 185.419191919192 214.3717347665214 L 188.3316498316498 207.4121981868706 L 191.2441077441078 199.8238955455773 L 194.1565656565657 191.6826466542742 L 197.0690235690236 183.0697961807439 L 199.9814814814815 174.071400879888 L 202.8939393939394 164.7773697430789 L 205.8063973063973 155.280565657237 L 208.7188552188552 145.6758775495624 L 211.6313131313131 136.0592722887388 L 214.5437710437711 126.5268358157057 L 217.456228956229 117.1738130846967 L 220.3686868686869 108.0936564071419 L 223.2811447811448 99.37709170706285 L 226.1936026936027 91.11121201762933 L 229.1060606060606 83.37860727636175 L 232.0185185185185 76.25653911377546 L 234.9309764309764 69.81616888070829 L 237.8434343434344 64.12184662762579 L 240.7558922558923 59.23046814018795 L 243.6683501683502 55.19090645536667 L 246.5808080808081 52.04352353821494 L 249.493265993266 49.81976699845455 L 252.4057239057239 48.54185587635462 L 255.3181818181818 48.22255863742589 L 258.2306397306397 48.86506559413408 L 261.1430976430976 50.46295702935237 L 264.0555555555555 53.00026734005272 L 266.9680134680135 56.4516445603339 L 269.8804713804714 60.78260366988454 L 272.7929292929293 65.94987115690662 L 275.7053872053872 71.90181739274141 L 278.6178451178451 78.57897249805242 L 281.530303030303 85.91462054620121 L 284.442760942761 93.83546616673368 L 287.3552188552188 102.2623668884928 L 290.2676767676768 111.1111239050299 L 293.1801346801346 120.2933233612459 L 296.0925925925926 129.7172197554058 L 299.0050505050505 139.2886526298652 L 301.9175084175084 148.9119873912375 L 304.8299663299663 158.4910708596387 L 307.7424242424243 167.9301919994765 L 310.6548821548822 177.1350382324804 L 313.5673400673401 186.0136377778076 L 316.479797979798 194.4772786036761 L 319.3922558922559 202.4413948086615 L 322.3047138047138 209.8264115762305 L 325.2171717171718 216.5585402600035 L 328.1296296296296 222.5705156555179 L 331.0420875420875 227.8022680919168 L 333.9545454545454 232.2015236282431 L 336.8670033670034 235.7243263573783 L 339.7794612794613 238.3354775989368 L 342.6919191919192 240.0088875928445 L 345.6043771043771 240.7278361795983 L 348.5168350168351 240.4851398625721 L 351.429292929293 239.2832235831409 L 354.3417508417509 237.1340964914681 L 357.2542087542088 234.0592319550467 L 360.1666666666666 230.0893530039095" stroke="#ff7f0eff" fill="transparent" stroke-width="1.5pt"/>
  <text x="69.16733333333335" y="278.662" fill="#000000ff" font-size="9pt">
    0
  </text>
  <text x="126.834" y="278.662" fill="#000000ff" font-size="9pt">
    1.98
  </text>
  <text x="184.5006666666667" y="278.662" fill="#000000ff" font-size="9pt">
    3.96
  </text>
  <text x="242.1673333333334" y="278.662" fill="#000000ff" font-size="9pt">
    5.94
  </text>
  <text x="299.834" y="278.662" fill="#000000ff" font-size="9pt">
    7.92
  </text>
  <text x="357.5006666666666" y="278.662" fill="#000000ff" font-size="9pt">
    9.9
  </text>
  <text x="3.009999999999998" y="244.749" fill="#000000ff" font-size="9pt">
    -1.0
  </text>
  <text x="3.009999999999998" y="225.499" fill="#000000ff" font-size="9pt">
    -0.80
  </text>
  <text x="3.009999999999998" y="206.249" fill="#000000ff" font-size="9pt">
    -0.60
  </text>
  <text x="3.009999999999998" y="186.999" fill="#000000ff" font-size="9pt">
    -0.40
  </text>
  <text x="3.009999999999998" y="167.749" fill="#000000ff" font-size="9pt">
    -0.20
  </text>
  <text x="3.009999999999998" y="148.4989999999999" fill="#000000ff" font-size="9pt">
    -0.00017
  </text>
  <text x="3.009999999999998" y="129.249" fill="#000000ff" font-size="9pt">
    +0.20
  </text>
  <text x="3.009999999999998" y="109.999" fill="#000000ff" font-size="9pt">
    +0.40
  </text>
  <text x="3.009999999999998" y="90.74899999999994" fill="#000000ff" font-size="9pt">
    +0.60
  </text>
  <text x="3.009999999999998" y="71.49899999999994" fill="#000000ff" font-size="9pt">
    +0.80
  </text>
  <text x="3.009999999999998" y="52.24899999999995" fill="#000000ff" font-size="9pt">
    +1.0
  </text>
</svg>
